<?xml version="1.0" encoding="utf-8"?>
<!-- Generator: Adobe Illustrator 25.2.0, SVG Export Plug-In . SVG Version: 6.00 Build 0)  -->
<svg version="1.1" id="Layer_1" xmlns="http://www.w3.org/2000/svg" xmlns:xlink="http://www.w3.org/1999/xlink" x="0px" y="0px"
	 viewBox="0 0 173 17" style="enable-background:new 0 0 173 17;" xml:space="preserve">
<style type="text/css">
	.st0{fill:#00FF76;}
</style>
<g>
	<path class="st0" d="M6.87,7.17c1.21-2.06,2.42-4.13,3.63-6.18h11.49l-2.35,3.86c-1.54,0-3.1,0-4.67,0c-1.56,0-3.12,0-4.65,0
		l0.9,1.42c-0.95,1.62-1.89,3.22-2.81,4.78c-0.17,0.3-0.34,0.59-0.52,0.89c0.04,0,0.39,0.01,1.08,0.01s1.49,0,2.42,0
		c0.93,0,1.77,0,2.54,0c0.76,0,1.23,0,1.41,0l-0.63,1.02l-1.71,2.84H5.61l-2.14-2.84C4.6,11.05,5.73,9.12,6.87,7.17z"/>
	<path class="st0" d="M35.98,4.85h-1.73l0.9,1.42c-0.96,1.63-1.9,3.24-2.82,4.81c-0.92,1.55-1.85,3.14-2.78,4.73l-2.14-2.84
		l1.62-2.76c-0.68,0-1.35,0-2.03,0s-1.35,0-2.03,0c-0.29,0.5-0.58,1-0.88,1.49c-0.8,1.35-1.6,2.72-2.42,4.12l-2.14-2.84
		c1.23-2.1,2.47-4.22,3.72-6.34c1.11-1.89,2.21-3.76,3.31-5.64h3.82l-2.27,3.86h-1.73l0.9,1.42c0.68,0,1.35,0,2.03,0s1.35,0,2.03,0
		l3.1-5.28h3.82L35.98,4.85z"/>
	<path class="st0" d="M51.81,4.85h-1.73l0.9,1.42c-0.96,1.63-1.9,3.23-2.81,4.8c-0.9,1.52-1.81,3.07-2.72,4.62l-0.04,0.06
		l-0.03,0.06h-7.42l-2.14-2.84c1.08-1.85,2.18-3.7,3.28-5.58c1.25-2.14,2.5-4.27,3.75-6.4h3.82l-2.27,3.86h-1.73l0.9,1.42
		c-0.96,1.63-1.9,3.24-2.82,4.81c-0.17,0.29-0.34,0.57-0.51,0.87h3.61l6.43-10.96h3.82L51.81,4.85z"/>
	<path class="st0" d="M66.65,6.77l-4.12,2.22l1.29,2.45l-0.3,0.51l-2.35,3.86h-7.41l-2.14-2.84c0.09-0.15,0.27-0.45,0.54-0.93
		c0.44-0.76,1.03-1.75,1.73-2.96c0.71-1.2,1.42-2.42,2.15-3.66c0.73-1.23,1.34-2.28,1.85-3.15c0.5-0.86,0.76-1.29,0.76-1.29h11.39
		L66.65,6.77z M60.06,11.95l-2.03-3.4l-2.01,3.4H60.06z M64.39,4.85h-5.92l0.9,1.41v0.01c-0.37,0.64-0.74,1.26-1.1,1.88L64.39,4.85z
		"/>
	<path class="st0" d="M82.61,6.77l-4.12,2.22l1.29,2.45l-0.3,0.51l-2.35,3.86h-7.41l-2.14-2.84c0.09-0.15,0.27-0.45,0.54-0.93
		c0.44-0.76,1.03-1.75,1.73-2.96c0.71-1.2,1.42-2.42,2.15-3.66c0.73-1.23,1.34-2.28,1.85-3.15c0.5-0.86,0.76-1.29,0.76-1.29H86
		L82.61,6.77z M76.02,11.95l-2.03-3.4l-2.01,3.4H76.02z M80.35,4.85h-5.92l0.9,1.41v0.01c-0.37,0.64-0.74,1.26-1.1,1.88L80.35,4.85z
		"/>
	<path class="st0" d="M98.74,7.17c1.21-2.06,2.42-4.13,3.63-6.18h11.49l-2.35,3.86c-1.54,0-3.1,0-4.67,0c-1.56,0-3.12,0-4.65,0
		l0.9,1.42c-0.95,1.62-1.89,3.22-2.81,4.78c-0.17,0.3-0.34,0.59-0.52,0.89c0.04,0,0.39,0.01,1.08,0.01s1.49,0,2.42,0s1.78,0,2.54,0
		c0.76,0,1.23,0,1.41,0l-0.62,1.02l-1.71,2.84h-7.38l-2.14-2.84C96.47,11.05,97.6,9.12,98.74,7.17z"/>
	<path class="st0" d="M119.98,4.85h-1.74l0.91,1.42c-0.96,1.62-1.9,3.23-2.82,4.79c-0.37,0.64-0.75,1.27-1.12,1.91h3.32l2.15,2.84
		h-7.14l-2.14-2.84c1-1.69,2-3.4,3-5.12c1.34-2.29,2.69-4.57,4.04-6.86h3.81L119.98,4.85z"/>
	<path class="st0" d="M138.65,4.85h-1.73l0.9,1.42c-0.96,1.63-1.9,3.23-2.81,4.8c-0.9,1.52-1.8,3.07-2.72,4.62l-0.04,0.06
		l-0.03,0.06h-7.42l-2.14-2.84c1.08-1.85,2.18-3.7,3.28-5.58c1.25-2.14,2.5-4.27,3.75-6.4h3.82l-2.27,3.86h-1.74l0.9,1.42
		c-0.96,1.63-1.9,3.24-2.82,4.81c-0.17,0.29-0.34,0.57-0.51,0.87h3.61l6.44-10.96h3.82L138.65,4.85z"/>
	<path class="st0" d="M153.49,6.77l-4.11,2.22l1.29,2.45l-0.3,0.51l-2.35,3.86h-7.41l-2.14-2.84c0.09-0.15,0.27-0.45,0.54-0.93
		c0.44-0.76,1.03-1.75,1.74-2.96c0.71-1.2,1.42-2.42,2.15-3.66c0.73-1.23,1.34-2.28,1.85-3.15c0.5-0.86,0.76-1.29,0.76-1.29h11.39
		L153.49,6.77z M146.9,11.95l-2.03-3.4l-2.01,3.4H146.9z M151.23,4.85h-5.92l0.9,1.41v0.01c-0.37,0.64-0.74,1.26-1.1,1.88
		L151.23,4.85z"/>
</g>
<g>
</g>
<g>
</g>
<g>
</g>
<g>
</g>
<g>
</g>
<g>
</g>
<g>
</g>
<g>
</g>
<g>
</g>
<g>
</g>
<g>
</g>
<g>
</g>
<g>
</g>
<g>
</g>
<g>
</g>
</svg>
